<svg xmlns="http://www.w3.org/2000/svg" xmlns:xlink="http://www.w3.org/1999/xlink" width="1366" height="768" viewBox="0 0 1366 768">
  <defs>
    <style>
      .cls-1 {
        fill: #bdbcbc;
        opacity: 0.5;
      }

      .cls-1, .cls-2 {
        fill-rule: evenodd;
      }

      .cls-2 {
        fill: url(#linear-gradient);
      }
    </style>
    <linearGradient id="linear-gradient" x1="680.5" y1="271.25" x2="680.5" y2="-4" gradientUnits="userSpaceOnUse">
      <stop offset="0" stop-color="#bdbcbc"/>
      <stop offset="1"/>
    </linearGradient>
  </defs>
  <g id="Plan_de_travail_1" data-name="Plan de travail 1">
    <path id="corner_curves_2" class="cls-1" d="M1368,3q-0.495,114.5-1,229c-97.1,47.793-176.67,65.488-221,31-56.54-43.986-15.99-142.185-72-194C1006.95,6.976,830.2,92.693,723,89c-67.069-2.31-182.836-55.865-303-23-33.163,9.07-87.761,34.368-140,71C188.738,201,149.1,268.961,92,260c-36.94-5.8-66.876-40.815-91-93L3,2C338.938,3.183,673.565,3.674,1009.5,3.475Q1188.84,3.369,1368,3Z"/>
    <path id="corner_curves" class="cls-2" d="M1364-2q1.995,114.5,4,229c-67.18,40.538-126.19,55-174,36-86.98-34.559-80.9-157.707-172-199-56.539-25.628-136.2,9.3-180,10C731.366,75.766,691.514,24.559,581,30c-69.736,3.433-141,26.753-203,64-41.349,24.842-123.469,123.639-204,132-60.95,6.328-122.132-23.6-181-77Q-6,72.5-5-4,498.256-3.257,1001.5-2.525Z"/>
  </g>
</svg>
