<svg xmlns="http://www.w3.org/2000/svg" xmlns:xlink="http://www.w3.org/1999/xlink" width="1366" height="768" viewBox="0 0 1366 768">
  <defs>
    <style>
      .cls-1 {
        fill: #cccccf;
        opacity: 0.49;
      }

      .cls-1, .cls-2 {
        fill-rule: evenodd;
      }

      .cls-2 {
        fill: url(#linear-gradient);
      }
    </style>
    <linearGradient id="linear-gradient" x1="682.5" y1="209.813" x2="682.5" y2="-6" gradientUnits="userSpaceOnUse">
      <stop offset="0" stop-color="#bdbcbc"/>
      <stop offset="0.99"/>
      <stop offset="1"/>
    </linearGradient>
  </defs>
  <g id="Plan_de_travail_1" data-name="Plan de travail 1">
    <path id="Forme_2" data-name="Forme 2" class="cls-1" d="M4,4c8.121,64.563,30.039,115.42,71,143,68.427,46.074,188.665-8.723,258-5,109.246,5.866,166.944,81.548,283,62,89.087-15,161.556-91.067,198-110,214.89-111.639,493.03.354,495-9,0.22-1.032-3.26-2.446-3-3,0.89-1.927,42.69,15.681,60,23V1Z"/>
    <path id="Forme_1" data-name="Forme 1" class="cls-2" d="M-1-5C43.7,69.143,100.737,127.271,172,164c187.836,96.81,448.7,24.847,656-74,75.339-35.923,211.06-109.6,346-69,34.57,10.4,71.22,28.835,101,48a439.232,439.232,0,0,1,91,78Q1365,70.5,1364-6C1028.06-4.817,693.435-4.327,357.5-4.525Q178.164-4.631-1-5Z"/>
  </g>
</svg>
