<svg xmlns="http://www.w3.org/2000/svg" width="1366" height="768" viewBox="0 0 1366 768">
  <defs>
    <style>
      .cls-1 {
        fill: #d0d0d0;
        opacity: 0.8;
      }

      .cls-1, .cls-2 {
        fill-rule: evenodd;
      }

      .cls-2 {
        opacity: 0.9;
      }
    </style>
  </defs>
  <g id="Plan_de_travail_1" data-name="Plan de travail 1">
    <path id="Forme_1_copie" data-name="Forme 1 copie" class="cls-1" d="M1369,765a644.665,644.665,0,0,0-105-35c-32.69-7.844-60.35-9.235-92-18-106.37-29.454-167.92-114.234-211-171C848.4,392.622,754.147,314.145,775,246c11.448-37.411,80.563-90.347,209-126,86.1-23.9,150.85-20.888,236-48A623.263,623.263,0,0,0,1368,2c3.19,168.273,4.41,333.3,3.69,501.592C1371.32,591.057,1370.43,677.545,1369,765Z"/>
    <path id="Forme_1" data-name="Forme 1" class="cls-2" d="M1372,768C1028.8,609.5,682.122,420.349,711,300c19.525-81.373,367.24-153.771,493-212,55.59-25.739,109.75-53.985,163-85,2.51,188.441,4.07,375.138,4.69,563.592C1371.91,633.8,1372.02,700.788,1372,768Z"/>
  </g>
</svg>
