<svg xmlns="http://www.w3.org/2000/svg" xmlns:xlink="http://www.w3.org/1999/xlink" width="1366" height="768" viewBox="0 0 1366 768">
  <defs>
    <style>
      .cls-1 {
        fill: #bdbcbc;
        opacity: 0.5;
      }

      .cls-1, .cls-2 {
        fill-rule: evenodd;
      }

      .cls-2 {
        fill: url(#linear-gradient);
      }
    </style>
    <linearGradient id="linear-gradient" x1="681" y1="216.469" x2="681" y2="-4" gradientUnits="userSpaceOnUse">
      <stop offset="0" stop-color="#bdbcbc"/>
      <stop offset="1"/>
    </linearGradient>
  </defs>
  <g id="Plan_de_travail_1" data-name="Plan de travail 1">
    <path id="spectacles_curves_copie" data-name="spectacles_curves copie" class="cls-1" d="M1368,3a410.347,410.347,0,0,1-44,63c-40.27,47.409-140.47,142.8-270,140-73.585-1.59-104.985-40.853-168-54-144.585-30.164-207.523,63.767-344,28-79.188-20.753-119.6-94.933-202-90-94.535,5.659-125.752,97.81-226,104-38.777,2.394-77.758-8.694-117-32L3,2C338.938,3.183,673.565,3.674,1009.5,3.475Q1188.84,3.369,1368,3Z"/>
    <path id="spectacles_curves" class="cls-2" d="M1367-3V129c-21.86,17.053-46.5,29.466-74,35-58.85,11.844-101.25-14.1-142-28C980.935,77.992,864.552,245.421,672,212,550.669,190.941,514.869,96.827,385,99c-110.354,1.846-155.148,67.966-279,70A394.557,394.557,0,0,1-4,155L-5-4C330.932-2.827,665.571-2.336,1001.5-2.525Q1184.335-2.628,1367-3Z"/>
  </g>
</svg>
